# xmcd
#
# Track frame offsets:
# 150
# 6263
# 31059
# 41334
# 54516
# 72726
# 88914
# 113217
# 129786
# 147446
# 162919
# 175918
# 192211
# 209581
#
# Disc length: 3078 seconds
#
#
# Revision: 0
# Processed by: cddbd v1.5.2PL0 Copyright (c) Steve Scherf et al.
# Submitted via: Nero 7, 11, 10, 0 
#
DISCID=c50c040e
DTITLE=Clifton Chenier - Comin' Home
DYEAR=1999
DGENRE=Blues
TTITLE0=Intro
TTITLE1=We're Gonna Party
TTITLE2=I Don't Know Lafayette
TTITLE3=Keep A Knockin'
TTITLE4=You Don't Call Me
TTITLE5=Got Me Where You Want Me
TTITLE6=What'd I Say
TTITLE7=Caldonia
TTITLE8=I'm Coming Home
TTITLE9=Kansas City
TTITLE10=Choo Choo Ch'Boogie
TTITLE11=Jolé Blonde
TTITLE12=Night Time Is The Right Time
TTITLE13=Let The Good Times Roll
EXTD=
EXTT0=Intro
EXTT1=We're Gonna Party
EXTT2=I Don't Know Lafayette
EXTT3=Keep A Knockin'
EXTT4=You Don't Call Me
EXTT5=Got Me Where You Want Me
EXTT6=What'd I Say
EXTT7=Caldonia
EXTT8=I'm Coming Home
EXTT9=Kansas City
EXTT10=Choo Choo Ch'Boogie
EXTT11=Jolé Blonde
EXTT12=Night Time Is The Right Time
EXTT13=Let The Good Times Roll
PLAYORDER=
